<?xml version="1.0" standalone="no"?><!DOCTYPE svg PUBLIC "-//W3C//DTD SVG 1.1//EN" "http://www.w3.org/Graphics/SVG/1.1/DTD/svg11.dtd"><svg t="1709522435680" class="icon" viewBox="0 0 1079 1024" version="1.1" xmlns="http://www.w3.org/2000/svg" p-id="2208" xmlns:xlink="http://www.w3.org/1999/xlink" width="210.7421875" height="200"><path d="M477.896564 46.97942c-212.424928 0.178923-407.708831 177.18704-427.750119 388.924277-21.505894 180.340738 79.986227 368.835055 245.635811 445.43693 153.834489 75.187101 351.285403 51.393174 478.873246-64.377676 129.814654-112.332394 186.536129-303.803859 129.514234-467.155444-54.226518-166.654781-214.261619-294.241201-390.518449-301.963371-11.902421-0.778339-23.830946-0.924041-35.754723-0.864716z m8.701263 137.50645c156.440502-4.550437 299.862329 133.426812 301.698071 289.930435 6.765382 143.173139-100.797311 283.764944-243.476868 307.768643-138.066474 27.657148-291.195237-52.136393-339.522038-186.17591-52.026286-132.550231 1.052182-300.172241 127.687983-369.74201 46.301696-27.186822 99.906492-41.848076 153.612852-41.781158zM486.770106 263.00749c-144.601202-5.49014-260.822919 152.488057-213.021022 288.874931 37.515004 139.672985 222.712295 204.266603 338.924995 118.13814 122.396701-77.117287 129.337209-273.117358 12.702592-358.699559-39.012833-31.121707-88.708373-48.437383-138.606565-48.313987z" p-id="2209"></path></svg>