<?xml version="1.0" standalone="no"?><!DOCTYPE svg PUBLIC "-//W3C//DTD SVG 1.1//EN" "http://www.w3.org/Graphics/SVG/1.1/DTD/svg11.dtd"><svg t="1709522415809" class="icon" viewBox="0 0 1024 1024" version="1.1" xmlns="http://www.w3.org/2000/svg" p-id="2066" xmlns:xlink="http://www.w3.org/1999/xlink" width="200" height="200"><path d="M219.9808 107.52C110.046208 107.52 20.48 196.708352 20.48 306.432v411.136c0 109.723648 89.566208 198.912 199.5008 198.912h584.0384c109.934592 0 199.5008-89.188352 199.5008-198.912v-411.136c0-109.723648-89.566208-198.912-199.5008-198.912H219.9808z m0 61.44h584.0384C881.094144 168.96 942.08 229.798912 942.08 306.432v411.136c0 76.633088-60.985856 137.472-138.0608 137.472H219.9808C142.905856 855.04 81.92 794.201088 81.92 717.568v-411.136C81.92 229.798912 142.905856 168.96 219.9808 168.96z" p-id="2067"></path></svg>